<?xml version="1.0" encoding="UTF-8" standalone="no" ?>
<!DOCTYPE svg PUBLIC "-//W3C//DTD SVG 1.1//EN" "http://www.w3.org/Graphics/SVG/1.1/DTD/svg11.dtd">
<svg xmlns="http://www.w3.org/2000/svg" xmlns:xlink="http://www.w3.org/1999/xlink" version="1.1" width="640" height="480" viewBox="0 0 640 480" xml:space="preserve">
<desc>Created with Fabric.js 3.6.3</desc>
<defs>
</defs>
<g transform="matrix(2.05 0 0 2.05 312.65 268.8)"  >
<g style=""   >
		<g transform="matrix(0.84 0 0 0.84 2.79 -83.66)"  >
<polygon style="stroke: rgb(0,0,0); stroke-width: 8; stroke-dasharray: none; stroke-linecap: butt; stroke-dashoffset: 0; stroke-linejoin: miter; stroke-miterlimit: 4; fill: rgb(0,0,0); fill-rule: nonzero; opacity: 1;"  points="-19.9,34.5 -39.8,0 -19.9,-34.5 19.9,-34.5 39.8,0 19.9,34.5 " />
</g>
		<g transform="matrix(0.84 0 0 0.84 3.79 -15.66)"  >
<polygon style="stroke: rgb(255,255,255); stroke-width: 8; stroke-dasharray: none; stroke-linecap: butt; stroke-dashoffset: 0; stroke-linejoin: miter; stroke-miterlimit: 4; fill: rgb(255,255,255); fill-rule: nonzero; opacity: 1;"  points="-19.9,34.5 -39.8,0 -19.9,-34.5 19.9,-34.5 39.8,0 19.9,34.5 " />
</g>
		<g transform="matrix(0.84 0 0 0.84 3.79 51.34)"  >
<polygon style="stroke: rgb(0,0,0); stroke-width: 8; stroke-dasharray: none; stroke-linecap: butt; stroke-dashoffset: 0; stroke-linejoin: miter; stroke-miterlimit: 4; fill: rgb(0,0,0); fill-rule: nonzero; opacity: 1;"  points="-19.9,34.5 -39.8,0 -19.9,-34.5 19.9,-34.5 39.8,0 19.9,34.5 " />
</g>
		<g transform="matrix(0.84 0 0 0.84 62.79 18.34)"  >
<polygon style="stroke: rgb(255,255,255); stroke-width: 8; stroke-dasharray: none; stroke-linecap: butt; stroke-dashoffset: 0; stroke-linejoin: miter; stroke-miterlimit: 4; fill: rgb(255,255,255); fill-rule: nonzero; opacity: 1;"  points="-19.9,34.5 -39.8,0 -19.9,-34.5 19.9,-34.5 39.8,0 19.9,34.5 " />
</g>
		<g transform="matrix(0.84 0 0 0.84 62.79 -49.66)"  >
<polygon style="stroke: rgb(0,0,0); stroke-width: 8; stroke-dasharray: none; stroke-linecap: butt; stroke-dashoffset: 0; stroke-linejoin: miter; stroke-miterlimit: 4; fill: rgb(0,0,0); fill-rule: nonzero; opacity: 1;"  points="-19.9,34.5 -39.8,0 -19.9,-34.5 19.9,-34.5 39.8,0 19.9,34.5 " />
</g>
		<g transform="matrix(0.84 0 0 0.84 -55.21 -49.66)"  >
<polygon style="stroke: rgb(0,0,0); stroke-width: 8; stroke-dasharray: none; stroke-linecap: butt; stroke-dashoffset: 0; stroke-linejoin: miter; stroke-miterlimit: 4; fill: rgb(0,0,0); fill-rule: nonzero; opacity: 1;"  points="-19.9,34.5 -39.8,0 -19.9,-34.5 19.9,-34.5 39.8,0 19.9,34.5 " />
</g>
		<g transform="matrix(0.84 0 0 0.84 -54.21 17.34)"  >
<polygon style="stroke: rgb(255,255,255); stroke-width: 8; stroke-dasharray: none; stroke-linecap: butt; stroke-dashoffset: 0; stroke-linejoin: miter; stroke-miterlimit: 4; fill: rgb(255,255,255); fill-rule: nonzero; opacity: 1;"  points="-19.9,34.5 -39.8,0 -19.9,-34.5 19.9,-34.5 39.8,0 19.9,34.5 " />
</g>
		<g transform="matrix(0.84 0 0 0.84 -113.21 -15.66)"  >
<polygon style="stroke: rgb(255,255,255); stroke-width: 8; stroke-dasharray: none; stroke-linecap: butt; stroke-dashoffset: 0; stroke-linejoin: miter; stroke-miterlimit: 4; fill: rgb(255,255,255); fill-rule: nonzero; opacity: 1;"  points="-19.9,34.5 -39.8,0 -19.9,-34.5 19.9,-34.5 39.8,0 19.9,34.5 " />
</g>
		<g transform="matrix(0.84 0 0 0.84 120.79 -15.66)"  >
<polygon style="stroke: rgb(255,255,255); stroke-width: 8; stroke-dasharray: none; stroke-linecap: butt; stroke-dashoffset: 0; stroke-linejoin: miter; stroke-miterlimit: 4; fill: rgb(255,255,255); fill-rule: nonzero; opacity: 1;"  points="-19.9,34.5 -39.8,0 -19.9,-34.5 19.9,-34.5 39.8,0 19.9,34.5 " />
</g>
</g>
</g>
</svg>